<?xml version="1.0" encoding="UTF-8"?>
<!DOCTYPE svg PUBLIC "-//W3C//DTD SVG 1.1//EN" "http://www.w3.org/Graphics/SVG/1.1/DTD/svg11.dtd">
<svg xmlns="http://www.w3.org/2000/svg" version="1.1" width="454px" height="537px" style="shape-rendering:geometricPrecision; text-rendering:geometricPrecision; image-rendering:optimizeQuality; fill-rule:evenodd; clip-rule:evenodd" xmlns:xlink="http://www.w3.org/1999/xlink">
<g><path style="opacity:1" fill="#fefffe" d="M 205.5,1.5 C 290.1,-3.393 358.266,27.2737 410,93.5C 453.1,157.528 463.1,226.528 440,300.5C 430.207,329.101 415.541,354.768 396,377.5C 345.5,428 295,478.5 244.5,529C 233.068,535.942 221.401,536.276 209.5,530C 158.667,479.167 107.833,428.333 57,377.5C 5.04876,313.666 -10.6179,241.666 10,161.5C 34.5694,84.5974 85.4027,34.0974 162.5,10C 176.762,6.07171 191.096,3.23837 205.5,1.5 Z M 219.5,26.5 C 289.953,26.3119 346.453,53.9786 389,109.5C 424.911,162.634 434.578,220.301 418,282.5C 409.118,311.939 394.785,338.273 375,361.5C 325.93,411.071 276.43,460.071 226.5,508.5C 176.57,460.071 127.07,411.071 78,361.5C 27.4339,299.656 14.7672,230.656 40,154.5C 69.7198,84.2071 122.22,42.3738 197.5,29C 204.989,28.2095 212.322,27.3761 219.5,26.5 Z M 225.5,138.5 C 271.875,141.602 301.042,165.602 313,210.5C 318.339,253.991 301.839,286.158 263.5,307C 223.424,322.439 188.591,314.606 159,283.5C 131.667,245.833 131.667,208.167 159,170.5C 176.905,150.796 199.071,140.13 225.5,138.5 Z"/></g>
<g><path style="opacity:1" fill="#fefffe" d="M 222.5,112.5 C 272.495,113.559 308.662,136.225 331,180.5C 350.406,233.037 339.573,278.204 298.5,316C 266.525,339.861 231.192,346.527 192.5,336C 145.927,319.348 119.427,286.515 113,237.5C 110.85,183.939 133.683,145.439 181.5,122C 194.785,116.581 208.451,113.414 222.5,112.5 Z M 225.5,138.5 C 199.071,140.13 176.905,150.796 159,170.5C 131.667,208.167 131.667,245.833 159,283.5C 188.591,314.606 223.424,322.439 263.5,307C 301.839,286.158 318.339,253.991 313,210.5C 301.042,165.602 271.875,141.602 225.5,138.5 Z"/></g>
</svg>
