<?xml version="1.0" encoding="UTF-8"?>
<!DOCTYPE svg PUBLIC "-//W3C//DTD SVG 1.1//EN" "http://www.w3.org/Graphics/SVG/1.1/DTD/svg11.dtd">
<svg xmlns="http://www.w3.org/2000/svg" version="1.1" width="833px" height="640px" style="shape-rendering:geometricPrecision; text-rendering:geometricPrecision; image-rendering:optimizeQuality; fill-rule:evenodd; clip-rule:evenodd" xmlns:xlink="http://www.w3.org/1999/xlink">
<g><path style="opacity:1" fill="#fefffe" d="M 212.5,-0.5 C 223.833,-0.5 235.167,-0.5 246.5,-0.5C 290.041,1.5128 329.374,15.3461 364.5,41C 381.225,53.3884 396.392,67.5551 410,83.5C 417.758,94.014 425.758,104.347 434,114.5C 459.911,71.2539 495.411,38.4206 540.5,16C 563.528,7.15727 587.195,1.65727 611.5,-0.5C 624.167,-0.5 636.833,-0.5 649.5,-0.5C 729.034,9.1667 783.534,51.1667 813,125.5C 824.033,157.062 830.533,189.395 832.5,222.5C 832.5,230.833 832.5,239.167 832.5,247.5C 828.744,296.275 814.577,341.942 790,384.5C 780.75,398.665 771.75,412.998 763,427.5C 753.749,447.588 745.082,467.921 737,488.5C 704.987,554.076 654.154,597.576 584.5,619C 550.582,625.097 516.582,630.764 482.5,636C 459.694,637.574 437.028,638.741 414.5,639.5C 396.833,639.5 379.167,639.5 361.5,639.5C 351.341,638.67 341.008,638.17 330.5,638C 311.589,637.366 294.923,631.033 280.5,619C 277.036,614.578 274.203,609.744 272,604.5C 266.374,597.206 260.374,590.206 254,583.5C 251.063,578.251 249.73,572.584 250,566.5C 249,564.833 248,563.167 247,561.5C 208.649,533.833 172.649,503.166 139,469.5C 121.205,448.703 103.038,428.203 84.5,408C 65.898,396.406 48.7313,382.906 33,367.5C 13.4238,346.591 2.25716,321.924 -0.5,293.5C -0.5,291.5 -0.5,289.5 -0.5,287.5C 1.10025,268.212 8.26692,251.212 21,236.5C 23.393,231.322 25.393,225.988 27,220.5C 30.3331,201.836 33.6664,183.169 37,164.5C 45.494,125.958 61.8273,91.2912 86,60.5C 99.7604,45.5477 115.594,33.381 133.5,24C 158.171,9.9715 184.504,1.80483 212.5,-0.5 Z M 478.5,221.5 C 485.257,221.123 491.924,221.623 498.5,223C 502.249,226.237 503.082,230.07 501,234.5C 495.305,239.85 488.805,244.016 481.5,247C 464.339,253.609 447.339,260.609 430.5,268C 426.142,270.194 423.475,273.694 422.5,278.5C 422.977,279.478 423.643,280.311 424.5,281C 430.989,282.963 437.656,283.963 444.5,284C 469.5,284.333 494.5,284.667 519.5,285C 534.898,285.097 550.231,286.097 565.5,288C 574.198,289.683 582.198,293.017 589.5,298C 596.469,304.804 595.802,310.804 587.5,316C 580.322,320.045 572.655,322.712 564.5,324C 554.897,325.8 545.23,327.134 535.5,328C 509.488,329.112 483.488,330.445 457.5,332C 453.686,332.234 450.019,333.068 446.5,334.5C 445.432,336.187 445.599,337.854 447,339.5C 449.087,340.794 451.254,341.961 453.5,343C 486.547,345.927 519.547,345.261 552.5,341C 562.761,339.678 572.761,340.678 582.5,344C 590.273,349.39 590.273,355.057 582.5,361C 578.962,363.269 575.295,365.269 571.5,367C 561.914,368.907 552.247,370.24 542.5,371C 516.815,372.414 491.148,374.08 465.5,376C 460.094,376.615 454.761,377.615 449.5,379C 446.871,381.789 447.538,383.789 451.5,385C 465.041,388.932 478.875,390.432 493,389.5C 505.854,389.476 518.687,388.976 531.5,388C 546.888,386.419 562.221,384.753 577.5,383C 580.338,387.153 579.672,390.82 575.5,394C 562.416,401.107 548.416,405.441 533.5,407C 515.464,408.695 497.464,410.695 479.5,413C 476.304,413.396 473.47,414.562 471,416.5C 470.544,417.744 471.044,418.577 472.5,419C 475.424,419.988 478.424,420.654 481.5,421C 506.541,421.048 531.541,421.715 556.5,423C 541.502,432.336 525.169,437.836 507.5,439.5C 502.719,438.84 498.052,437.673 493.5,436C 482.446,429.806 471.112,424.139 459.5,419C 452.635,416.534 445.635,414.534 438.5,413C 406.373,407.504 374.039,404.504 341.5,404C 337.873,404.564 334.707,406.064 332,408.5C 330.085,405.138 329.085,401.471 329,397.5C 327.131,357.692 328.798,318.025 334,278.5C 336.167,271.319 340.334,265.485 346.5,261C 364.199,247.652 383.865,238.319 405.5,233C 430.173,230.442 454.506,226.609 478.5,221.5 Z M 33.5,245.5 C 52.4784,251.985 71.4784,258.485 90.5,265C 111.184,270.47 132.184,274.137 153.5,276C 199.786,279.732 246.12,280.399 292.5,278C 300.876,277.988 309.042,276.821 317,274.5C 318.569,275.714 319.402,277.381 319.5,279.5C 315.06,308.157 312.727,336.991 312.5,366C 313.239,386.224 314.405,406.391 316,426.5C 313.424,429.142 310.257,430.642 306.5,431C 260.874,432.825 215.541,429.825 170.5,422C 128.811,412.982 91.144,395.649 57.5,370C 32.3833,349.107 17.3833,322.441 12.5,290C 15.6598,273.188 22.6598,258.354 33.5,245.5 Z M 350.5,416.5 C 383.518,419.05 416.185,423.883 448.5,431C 468.242,437.122 485.075,447.622 499,462.5C 502.271,470.854 504.271,479.521 505,488.5C 509.012,518.716 510.345,549.049 509,579.5C 508.789,590.662 506.455,601.329 502,611.5C 497.029,616.902 490.863,620.069 483.5,621C 471.236,622.822 458.903,623.822 446.5,624C 421.326,624.251 396.16,624.751 371,625.5C 355.145,624.988 339.311,624.155 323.5,623C 312.092,621.126 301.758,616.793 292.5,610C 317.502,610.245 342.502,610.578 367.5,611C 371.065,608.822 371.399,606.156 368.5,603C 364.019,601.046 359.352,599.713 354.5,599C 332.729,596.729 311.063,593.729 289.5,590C 281.91,588.916 275.076,586.083 269,581.5C 264.899,576.226 265.899,572.559 272,570.5C 308.597,577.61 345.431,579.444 382.5,576C 386.831,575.669 390.664,574.169 394,571.5C 394.72,569.888 394.554,568.388 393.5,567C 390.899,566.08 388.232,565.413 385.5,565C 360.192,563.248 334.858,561.915 309.5,561C 294.88,560.178 280.88,556.845 267.5,551C 254.167,540.329 256.167,534.329 273.5,533C 284.817,532.13 296.15,531.63 307.5,531.5C 334.163,532.473 360.829,532.64 387.5,532C 390.234,531.79 392.734,530.956 395,529.5C 396.101,524.421 393.935,521.921 388.5,522C 355.499,519.773 322.499,517.44 289.5,515C 280.976,513.786 272.643,511.786 264.5,509C 252.528,502.775 251.528,495.108 261.5,486C 267.51,482.997 273.843,480.997 280.5,480C 294.104,478.191 307.771,477.191 321.5,477C 344.833,476.667 368.167,476.333 391.5,476C 401.033,475.972 410.366,474.638 419.5,472C 420.574,471.261 421.241,470.261 421.5,469C 420.224,466.719 418.557,464.719 416.5,463C 399.656,454.497 382.323,447.164 364.5,441C 356.553,438.115 349.719,433.615 344,427.5C 342.035,421.433 344.202,417.767 350.5,416.5 Z M 736.5,442.5 C 737.497,442.47 738.164,442.97 738.5,444C 711.791,530.378 654.791,585.044 567.5,608C 554.52,610.696 541.52,613.196 528.5,615.5C 527.522,615.023 526.689,614.357 526,613.5C 524.023,603.957 523.023,594.29 523,584.5C 522.819,554.82 522.152,525.153 521,495.5C 520.779,487.066 519.279,478.899 516.5,471C 545.167,470.667 573.833,470.333 602.5,470C 648.997,469.201 693.663,460.035 736.5,442.5 Z"/></g>
</svg>
