<?xml version="1.0" encoding="UTF-8"?>
<!DOCTYPE svg PUBLIC "-//W3C//DTD SVG 1.1//EN" "http://www.w3.org/Graphics/SVG/1.1/DTD/svg11.dtd">
<svg xmlns="http://www.w3.org/2000/svg" version="1.1" width="110px" height="94px" style="shape-rendering:geometricPrecision; text-rendering:geometricPrecision; image-rendering:optimizeQuality; fill-rule:evenodd; clip-rule:evenodd" xmlns:xlink="http://www.w3.org/1999/xlink">
<g><path style="opacity:1" fill="#fefffe" d="M 102.5,-0.5 C 103.5,-0.5 104.5,-0.5 105.5,-0.5C 106.795,0.488369 108.128,1.48837 109.5,2.5C 109.5,5.83333 109.5,9.16667 109.5,12.5C 105.573,37.397 101.406,62.397 97,87.5C 95.6403,90.0226 93.807,92.0226 91.5,93.5C 89.8333,93.5 88.1667,93.5 86.5,93.5C 73.5658,84.6896 60.5658,75.8563 47.5,67C 46.1698,64.1227 46.3364,61.2893 48,58.5C 59,48.1667 70,37.8333 81,27.5C 81.7975,25.7412 81.6309,24.0745 80.5,22.5C 78.4595,23.2357 76.4595,24.0691 74.5,25C 60.0161,35.7443 45.0161,45.7443 29.5,55C 25.2152,56.5869 20.8818,56.5869 16.5,55C 10.6092,53.3159 4.94256,51.1492 -0.5,48.5C -0.5,46.5 -0.5,44.5 -0.5,42.5C 33.5152,27.1687 67.8485,12.8353 102.5,-0.5 Z"/></g>
</svg>
