<?xml version="1.0" encoding="UTF-8"?>
<!DOCTYPE svg PUBLIC "-//W3C//DTD SVG 1.1//EN" "http://www.w3.org/Graphics/SVG/1.1/DTD/svg11.dtd">
<svg xmlns="http://www.w3.org/2000/svg" version="1.1" width="118px" height="119px" style="shape-rendering:geometricPrecision; text-rendering:geometricPrecision; image-rendering:optimizeQuality; fill-rule:evenodd; clip-rule:evenodd" xmlns:xlink="http://www.w3.org/1999/xlink">
<g><path style="opacity:1" fill="#fefffe" d="M 52.5,-0.5 C 56.5,-0.5 60.5,-0.5 64.5,-0.5C 93.1487,4.481 110.815,21.1477 117.5,49.5C 117.5,55.5 117.5,61.5 117.5,67.5C 107.577,104.31 83.5774,120.476 45.5,116C 40.0659,114.449 34.7326,112.616 29.5,110.5C 19.9328,113.309 10.2661,115.642 0.5,117.5C 2.59325,107.96 4.92658,98.46 7.5,89C 3.48069,80.4527 0.814024,71.6194 -0.5,62.5C -0.5,59.8333 -0.5,57.1667 -0.5,54.5C 4.5916,24.0747 22.2583,5.74133 52.5,-0.5 Z M 52.5,8.5 C 81.9957,7.51788 100.496,21.1845 108,49.5C 110.827,80.9831 96.9939,100.483 66.5,108C 53.7245,109.845 41.8912,107.345 31,100.5C 24.9516,103.059 18.7849,104.392 12.5,104.5C 14.0114,98.7879 15.678,93.1212 17.5,87.5C 3.63356,62.7327 6.63356,40.2327 26.5,20C 34.6911,14.0483 43.3578,10.2149 52.5,8.5 Z"/></g>
<g><path style="opacity:1" fill="#fefffe" d="M 36.5,31.5 C 39.0444,31.1043 41.2111,31.771 43,33.5C 44.8333,37.8333 46.6667,42.1667 48.5,46.5C 46.7969,49.1905 45.1303,51.8572 43.5,54.5C 47.9779,64.4733 55.4779,71.1399 66,74.5C 69.0457,72.0934 71.879,69.4267 74.5,66.5C 78.6194,68.0595 82.6194,69.8928 86.5,72C 89.0694,76.6674 88.0694,80.6674 83.5,84C 80.7946,85.8715 77.7946,86.7048 74.5,86.5C 65.7125,85.2711 57.7125,82.1045 50.5,77C 42.4914,70.3332 35.9914,62.4999 31,53.5C 27.692,44.6768 29.5253,37.3435 36.5,31.5 Z"/></g>
<g><path style="opacity:1" fill="#fefffe" d="M -0.5,117.5 C -0.166667,117.5 0.166667,117.5 0.5,117.5C 0.5,117.833 0.5,118.167 0.5,118.5C 0.166667,118.167 -0.166667,117.833 -0.5,117.5 Z"/></g>
</svg>
